<?xml version="1.0" encoding="UTF-8" standalone="no"?>
<svg width="15px" height="15px" viewBox="0 0 15 15" version="1.1" xmlns="http://www.w3.org/2000/svg" xmlns:xlink="http://www.w3.org/1999/xlink">
    <!-- Generator: Sketch 39 (31667) - http://www.bohemiancoding.com/sketch -->
    <title>icon_edit</title>
    <desc>Created with Sketch.</desc>
    <defs></defs>
    <g id="Patterns081716" stroke="none" stroke-width="1" fill="none" fill-rule="evenodd">
        <g id="Icons" transform="translate(-674.000000, -343.000000)" fill="#000000">
            <g id="icon_edit" transform="translate(673.000000, 342.000000)">
                <path d="M13.685,3.315 C14.0119289,3.65374626 14.0119289,4.19053946 13.685,4.52928571 L5.45214286,12.7864286 C5.41218024,12.8274541 5.36181063,12.8568364 5.30642857,12.8714286 L3.95857143,13.2357143 C3.90375671,13.2509073 3.84500699,13.2354353 3.80478584,13.1952142 C3.76456469,13.154993 3.74909269,13.0962433 3.76428571,13.0414286 L4.12857143,11.6935714 C4.14316363,11.6381894 4.1725459,11.5878198 4.21357143,11.5478571 L12.4585714,3.30285714 C12.7973177,2.97592829 13.3341109,2.97592829 13.6728571,3.30285714 L13.685,3.315 Z M14.9964286,1.97928571 C14.481585,1.46319068 13.7825557,1.17314607 13.0535714,1.17314607 C12.3245872,1.17314607 11.6255579,1.46319068 11.1107143,1.97928571 L2.52571429,10.5885714 C2.48205472,10.6236866 2.44852647,10.669788 2.42857143,10.7221429 L1.21428571,15.4214286 C1.19707937,15.5223476 1.22987494,15.6253445 1.3022652,15.6977348 C1.37465546,15.7701251 1.47765245,15.8029206 1.57857143,15.7857143 L6.27785714,14.5714286 C6.3332392,14.5568364 6.38360881,14.5274541 6.42357143,14.4864286 L15.0207143,5.88928571 C15.5368093,5.37444211 15.8268539,4.67541281 15.8268539,3.94642857 C15.8268539,3.21744433 15.5368093,2.51841503 15.0207143,2.00357143 L14.9964286,1.97928571 Z" id="Shape"></path>
            </g>
        </g>
    </g>
</svg>