<?xml version="1.0" encoding="UTF-8" standalone="no"?>
<svg width="20px" height="24px" viewBox="0 0 20 24" version="1.1" xmlns="http://www.w3.org/2000/svg" xmlns:xlink="http://www.w3.org/1999/xlink">
    <!-- Generator: Sketch 39 (31667) - http://www.bohemiancoding.com/sketch -->
    <title>icon_PDF</title>
    <desc>Created with Sketch.</desc>
    <defs></defs>
    <g id="Patterns080216" stroke="none" stroke-width="1" fill="none" fill-rule="evenodd">
        <g id="Icons" transform="translate(-96.000000, -192.000000)" fill="#000000">
            <g id="icon_PDF" transform="translate(96.000000, 192.000000)">
                <path d="M17.7589744,23.6897856 L2.50339089,23.6897856 C1.35928833,23.6897856 0.428937729,22.7832409 0.428937729,21.6684136 L0.428937729,2.25592434 C0.429178441,1.1410971 1.35928833,0.234552333 2.50339089,0.234552333 L14.3675877,0.234552333 C14.5558242,0.234552333 14.7356358,0.307732661 14.8687493,0.436032787 L19.6252119,5.06633039 C19.7583255,5.19603783 19.8319833,5.37124842 19.8319833,5.55466835 L19.8319833,21.6684136 C19.8319833,22.7818335 18.9016327,23.6897856 17.7589744,23.6897856 L17.7589744,23.6897856 Z M2.50339089,1.61418916 C2.14087912,1.61418916 1.84504448,1.90128121 1.84504448,2.25568979 L1.84504448,21.6684136 C1.84504448,22.0216494 2.14087912,22.3099142 2.50339089,22.3099142 L17.7575301,22.3099142 C18.1142648,22.3099142 18.4158765,22.0160202 18.4158765,21.6684136 L18.4158765,5.84035309 L14.0746415,1.61418916 L2.50339089,1.61418916 L2.50339089,1.61418916 Z" id="Shape"></path>
                <path d="M19.1238095,6.24472131 L14.3719205,6.24472131 C13.9810047,6.24472131 13.6639874,5.93558134 13.6639874,5.5549029 L13.6639874,0.924370744 C13.6639874,0.645722573 13.8368184,0.39310971 14.1016013,0.286857503 C14.3649398,0.180605296 14.6708844,0.238539723 14.8733229,0.435798235 L19.6252119,5.06633039 C19.8276504,5.2635889 19.8885505,5.5602976 19.7780638,5.81830517 C19.6675772,6.07631274 19.41146,6.24472131 19.1238095,6.24472131 L19.1238095,6.24472131 Z M15.0798535,4.86484994 L17.4147567,4.86484994 L15.0798535,2.58969231 L15.0798535,4.86484994 L15.0798535,4.86484994 Z" id="Shape"></path>
                <path d="M4.9974045,17.3177024 L4.9974045,19.1394704 L4.12289901,19.1394704 L4.12289901,14.2349811 L6.04835165,14.2349811 C7.21676609,14.2349811 7.88401884,14.8924313 7.88401884,15.7952232 C7.88401884,16.7477402 7.21676609,17.3177024 6.04835165,17.3177024 L4.9974045,17.3177024 L4.9974045,17.3177024 Z M4.9974045,16.6332787 L6.04835165,16.6332787 C6.725955,16.6332787 7.00590267,16.2896595 7.00590267,15.8006179 C7.00590267,15.3425372 6.725955,14.9222194 6.04835165,14.9222194 L4.9974045,14.9222194 L4.9974045,16.6332787 L4.9974045,16.6332787 Z" id="Shape"></path>
                <path d="M8.64779696,19.1392358 L8.64779696,14.2347465 L10.1341915,14.2347465 C11.4754369,14.2347465 12.4019362,15.1509079 12.4019362,16.5683077 L12.4019362,16.8108348 C12.4019362,18.2256545 11.4893982,19.1390013 10.0927891,19.1390013 L8.64779696,19.1390013 L8.64779696,19.1392358 Z M9.52254317,14.9219849 L9.52254317,18.4587995 L10.0930298,18.4587995 C11.0472109,18.4587995 11.5243014,17.8391122 11.5243014,16.8108348 L11.5243014,16.562913 C11.5243014,15.4985145 11.0368603,14.9217503 10.1346729,14.9217503 L9.52254317,14.9217503 L9.52254317,14.9219849 Z" id="Shape"></path>
                <polygon id="Shape" points="16.1736473 17.0615712 14.1478179 17.0615712 14.1478179 19.1392358 13.2733124 19.1392358 13.2733124 14.2347465 16.4709262 14.2347465 16.4709262 14.9219849 14.1478179 14.9219849 14.1478179 16.3799622 16.1736473 16.3799622"></polygon>
            </g>
        </g>
    </g>
</svg>