<?xml version="1.0" encoding="UTF-8" standalone="no"?>
<svg width="29px" height="29px" viewBox="0 0 29 29" version="1.1" xmlns="http://www.w3.org/2000/svg" xmlns:xlink="http://www.w3.org/1999/xlink">
    <!-- Generator: Sketch 39 (31667) - http://www.bohemiancoding.com/sketch -->
    <title>icon_warning</title>
    <desc>Created with Sketch.</desc>
    <defs></defs>
    <g id="Patterns081716" stroke="none" stroke-width="1" fill="none" fill-rule="evenodd">
        <g id="Icons" transform="translate(-436.000000, -193.000000)">
            <g id="icon_warning" transform="translate(432.000000, 189.000000)">
                <path d="M18.7321108,5 L27.5111373,8.63639183 C28.0253377,8.84938061 28.6150016,9.43927165 28.8278298,9.95308434 L32.0785713,17.8010686 C32.2915601,18.315269 32.2913995,19.1493403 32.0785713,19.663153 L28.8278298,27.5111373 C28.614841,28.0253377 28.02495,28.6150016 27.5111373,28.8278298 L18.7321108,32.4642216 L9.95308434,28.8278298 C9.43888393,28.614841 8.84922001,28.02495 8.63639183,27.5111373 L5.38565031,19.663153 C5.17266152,19.1489526 5.17282212,18.3148813 5.38565031,17.8010686 L8.63639183,9.95308434 C8.84938061,9.43888393 9.43927165,8.84922001 9.95308434,8.63639183 L18.7321108,5 Z" id="Polygon" stroke="#2A2A2A" stroke-width="2.7" stroke-linecap="round" transform="translate(18.732111, 18.732111) rotate(68.000000) translate(-18.732111, -18.732111) "></path>
                <path d="M18.2363431,21.2607803 C18.2781935,21.7125257 18.5711468,22 18.9896514,22 C19.408156,22 19.7220345,21.7125257 19.763885,21.2607803 L20.4962681,12.8829569 C20.5381185,12.3901437 20.2242401,12 19.7429597,12 L18.2363431,12 C17.7550628,12 17.4621095,12.3901437 17.50396,12.8829569 L18.2363431,21.2607803 Z M17.5,24.3986486 L17.5,24.6013514 C17.5,25.3918919 18.1549296,26 19,26 C19.8661972,26 20.5,25.3918919 20.5,24.6013514 L20.5,24.3986486 C20.5,23.6081081 19.8661972,23 19,23 C18.1549296,23 17.5,23.6081081 17.5,24.3986486 L17.5,24.3986486 Z" id="!" fill="#000000"></path>
            </g>
        </g>
    </g>
</svg>