<?xml version="1.0" encoding="UTF-8" standalone="no"?>
<svg width="22px" height="22px" viewBox="0 0 22 22" version="1.1" xmlns="http://www.w3.org/2000/svg" xmlns:xlink="http://www.w3.org/1999/xlink">
    <!-- Generator: Sketch 39 (31667) - http://www.bohemiancoding.com/sketch -->
    <title>icon_print</title>
    <desc>Created with Sketch.</desc>
    <defs></defs>
    <g id="Patterns081716" stroke="none" stroke-width="1" fill="none" fill-rule="evenodd">
        <g id="Icons" transform="translate(-211.000000, -193.000000)" fill="#000000">
            <g id="icon_print" transform="translate(211.000000, 193.000000)">
                <path d="M17.8666667,5.93333333 L16.6666667,5.93333333 L16.6666667,1.26666667 C16.6666667,0.866666667 16.3333333,0.6 16,0.6 L5.33333333,0.6 C5,0.6 4.66666667,0.866666667 4.66666667,1.26666667 L4.66666667,5.93333333 L3.46666667,5.93333333 C1.53333333,5.93333333 0,7.53333333 0,9.4 L0,15.0666667 C0,17 1.53333333,18.6 3.46666667,18.6 L4.66666667,18.6 L4.66666667,21.2666667 C4.66666667,21.6666667 5,21.9333333 5.33333333,21.9333333 L16,21.9333333 C16.3333333,21.9333333 16.6666667,21.6666667 16.6666667,21.2666667 L16.6666667,18.6 L17.8666667,18.6 C19.8,18.6 21.4,17 21.4,15.0666667 L21.4,9.4 C21.3333333,7.46666667 19.8,5.93333333 17.8666667,5.93333333 L17.8666667,5.93333333 Z M6,1.93333333 L15.3333333,1.93333333 L15.3333333,5.93333333 L6,5.93333333 L6,1.93333333 L6,1.93333333 Z M15.3333333,20.6 L6,20.6 L6,15.9333333 L15.3333333,15.9333333 L15.3333333,20.6 L15.3333333,20.6 Z M20,15.0666667 C20,16.2666667 19,17.2666667 17.8,17.2666667 L16.6,17.2666667 L16.6,15.9333333 L17.9333333,15.9333333 C18.2666667,15.9333333 18.6,15.6666667 18.6,15.2666667 C18.6,14.8666667 18.2666667,14.6 17.9333333,14.6 L3.26666667,14.6 C2.93333333,14.6 2.6,14.8666667 2.6,15.2666667 C2.6,15.6666667 2.93333333,15.9333333 3.26666667,15.9333333 L4.6,15.9333333 L4.6,17.2666667 L3.46666667,17.2666667 C2.26666667,17.2666667 1.33333333,16.2666667 1.33333333,15.0666667 L1.33333333,9.4 C1.33333333,8.2 2.33333333,7.26666667 3.46666667,7.26666667 L17.8,7.26666667 C19,7.26666667 20,8.2 20,9.4 L20,15.0666667 L20,15.0666667 Z" id="Shape"></path>
                <path d="M16.6666667,8.6 C15.5333333,8.6 14.6666667,9.46666667 14.6666667,10.6 C14.6666667,11.7333333 15.5333333,12.6 16.6666667,12.6 C17.8,12.6 18.6666667,11.7333333 18.6666667,10.6 C18.6666667,9.46666667 17.8,8.6 16.6666667,8.6 L16.6666667,8.6 Z M16.6666667,11.2666667 C16.2666667,11.2666667 16,11 16,10.6 C16,10.2 16.2666667,9.93333333 16.6666667,9.93333333 C17.0666667,9.93333333 17.3333333,10.2 17.3333333,10.6 C17.3333333,11 17,11.2666667 16.6666667,11.2666667 L16.6666667,11.2666667 Z" id="Shape"></path>
                <path d="M8,18.9333333 L13.3333333,18.9333333 C13.7333333,18.9333333 14,18.6666667 14,18.2666667 C14,17.8666667 13.7333333,17.6 13.3333333,17.6 L8,17.6 C7.6,17.6 7.33333333,17.8666667 7.33333333,18.2666667 C7.33333333,18.6666667 7.6,18.9333333 8,18.9333333 L8,18.9333333 Z" id="Shape"></path>
            </g>
        </g>
    </g>
</svg>