<?xml version="1.0" encoding="UTF-8" standalone="no"?>
<svg width="18px" height="22px" viewBox="0 0 18 22" version="1.1" xmlns="http://www.w3.org/2000/svg" xmlns:xlink="http://www.w3.org/1999/xlink">
    <!-- Generator: Sketch 39 (31667) - http://www.bohemiancoding.com/sketch -->
    <title>icon_PDF</title>
    <desc>Created with Sketch.</desc>
    <defs></defs>
    <g id="Patterns081716" stroke="none" stroke-width="1" fill="none" fill-rule="evenodd">
        <g id="Icons" transform="translate(-97.000000, -193.000000)" fill="#000000">
            <g id="icon_PDF" transform="translate(97.000000, 193.000000)">
                <path d="M15.9830769,21.7156368 L2.25305181,21.7156368 C1.2233595,21.7156368 0.386043956,20.8846375 0.386043956,19.8627125 L0.386043956,2.06793064 C0.386260597,1.04600567 1.2233595,0.215006305 2.25305181,0.215006305 L12.9308289,0.215006305 C13.1002418,0.215006305 13.2620722,0.282088272 13.3818744,0.399696721 L17.6626907,4.64413619 C17.7824929,4.76303468 17.8487849,4.92364439 17.8487849,5.09177932 L17.8487849,19.8627125 C17.8487849,20.8833474 17.0114694,21.7156368 15.9830769,21.7156368 L15.9830769,21.7156368 Z M2.25305181,1.47967339 C1.92679121,1.47967339 1.66054003,1.74284111 1.66054003,2.06771564 L1.66054003,19.8627125 C1.66054003,20.186512 1.92679121,20.4507547 2.25305181,20.4507547 L15.9817771,20.4507547 C16.3028383,20.4507547 16.5742889,20.1813518 16.5742889,19.8627125 L16.5742889,5.353657 L12.6671774,1.47967339 L2.25305181,1.47967339 L2.25305181,1.47967339 Z" id="Shape"></path>
                <path d="M17.2114286,5.72432787 L12.9347284,5.72432787 C12.5829042,5.72432787 12.2975887,5.44094956 12.2975887,5.09199433 L12.2975887,0.847339849 C12.2975887,0.591912358 12.4531366,0.360350567 12.6914411,0.262952711 C12.9284458,0.165554855 13.2037959,0.218661412 13.3859906,0.399481715 L17.6626907,4.64413619 C17.8448854,4.82495649 17.8996954,5.09693947 17.8002575,5.33344641 C17.7008195,5.56995334 17.470314,5.72432787 17.2114286,5.72432787 L17.2114286,5.72432787 Z M13.5718681,4.45944578 L15.673281,4.45944578 L13.5718681,2.37388462 L13.5718681,4.45944578 L13.5718681,4.45944578 Z" id="Shape"></path>
                <path d="M4.49766405,15.8745605 L4.49766405,17.5445145 L3.71060911,17.5445145 L3.71060911,13.0487327 L5.44351648,13.0487327 C6.49508948,13.0487327 7.09561695,13.6513953 7.09561695,14.4789546 C7.09561695,15.3520952 6.49508948,15.8745605 5.44351648,15.8745605 L4.49766405,15.8745605 L4.49766405,15.8745605 Z M4.49766405,15.2471721 L5.44351648,15.2471721 C6.0533595,15.2471721 6.3053124,14.9321879 6.3053124,14.4838997 C6.3053124,14.0639924 6.0533595,13.6787011 5.44351648,13.6787011 L4.49766405,13.6787011 L4.49766405,15.2471721 L4.49766405,15.2471721 Z" id="Shape"></path>
                <path d="M7.78301727,17.5442995 L7.78301727,13.0485177 L9.12077237,13.0485177 C10.3278932,13.0485177 11.1617425,13.8883323 11.1617425,15.1876154 L11.1617425,15.4099319 C11.1617425,16.7068499 10.3404584,17.5440845 9.0835102,17.5440845 L7.78301727,17.5440845 L7.78301727,17.5442995 Z M8.57028885,13.6784861 L8.57028885,16.9205662 L9.08372684,16.9205662 C9.9424898,16.9205662 10.3718713,16.3525195 10.3718713,15.4099319 L10.3718713,15.1826702 C10.3718713,14.2069716 9.93317425,13.6782711 9.12120565,13.6782711 L8.57028885,13.6782711 L8.57028885,13.6784861 Z" id="Shape"></path>
                <polygon id="Shape" points="14.5562826 15.6397736 12.7330361 15.6397736 12.7330361 17.5442995 11.9459812 17.5442995 11.9459812 13.0485177 14.8238336 13.0485177 14.8238336 13.6784861 12.7330361 13.6784861 12.7330361 15.0149653 14.5562826 15.0149653"></polygon>
            </g>
        </g>
    </g>
</svg>