<?xml version="1.0" encoding="UTF-8" standalone="no"?>
<svg width="25px" height="25px" viewBox="0 0 25 25" version="1.1" xmlns="http://www.w3.org/2000/svg" xmlns:xlink="http://www.w3.org/1999/xlink">
    <!-- Generator: Sketch 39 (31667) - http://www.bohemiancoding.com/sketch -->
    <title>icon_print</title>
    <desc>Created with Sketch.</desc>
    <defs></defs>
    <g id="Patterns080216" stroke="none" stroke-width="1" fill="none" fill-rule="evenodd">
        <g id="Icons" transform="translate(-209.000000, -191.000000)" fill="#000000">
            <g id="icon_print" transform="translate(209.000000, 191.000000)">
                <path d="M20.3030303,6.74242424 L18.9393939,6.74242424 L18.9393939,1.43939394 C18.9393939,0.984848485 18.5606061,0.681818182 18.1818182,0.681818182 L6.06060606,0.681818182 C5.68181818,0.681818182 5.3030303,0.984848485 5.3030303,1.43939394 L5.3030303,6.74242424 L3.93939394,6.74242424 C1.74242424,6.74242424 0,8.56060606 0,10.6818182 L0,17.1212121 C0,19.3181818 1.74242424,21.1363636 3.93939394,21.1363636 L5.3030303,21.1363636 L5.3030303,24.1666667 C5.3030303,24.6212121 5.68181818,24.9242424 6.06060606,24.9242424 L18.1818182,24.9242424 C18.5606061,24.9242424 18.9393939,24.6212121 18.9393939,24.1666667 L18.9393939,21.1363636 L20.3030303,21.1363636 C22.5,21.1363636 24.3181818,19.3181818 24.3181818,17.1212121 L24.3181818,10.6818182 C24.2424242,8.48484848 22.5,6.74242424 20.3030303,6.74242424 L20.3030303,6.74242424 Z M6.81818182,2.1969697 L17.4242424,2.1969697 L17.4242424,6.74242424 L6.81818182,6.74242424 L6.81818182,2.1969697 L6.81818182,2.1969697 Z M17.4242424,23.4090909 L6.81818182,23.4090909 L6.81818182,18.1060606 L17.4242424,18.1060606 L17.4242424,23.4090909 L17.4242424,23.4090909 Z M22.7272727,17.1212121 C22.7272727,18.4848485 21.5909091,19.6212121 20.2272727,19.6212121 L18.8636364,19.6212121 L18.8636364,18.1060606 L20.3787879,18.1060606 C20.7575758,18.1060606 21.1363636,17.8030303 21.1363636,17.3484848 C21.1363636,16.8939394 20.7575758,16.5909091 20.3787879,16.5909091 L3.71212121,16.5909091 C3.33333333,16.5909091 2.95454545,16.8939394 2.95454545,17.3484848 C2.95454545,17.8030303 3.33333333,18.1060606 3.71212121,18.1060606 L5.22727273,18.1060606 L5.22727273,19.6212121 L3.93939394,19.6212121 C2.57575758,19.6212121 1.51515152,18.4848485 1.51515152,17.1212121 L1.51515152,10.6818182 C1.51515152,9.31818182 2.65151515,8.25757576 3.93939394,8.25757576 L20.2272727,8.25757576 C21.5909091,8.25757576 22.7272727,9.31818182 22.7272727,10.6818182 L22.7272727,17.1212121 L22.7272727,17.1212121 Z" id="Shape"></path>
                <path d="M18.9393939,9.77272727 C17.6515152,9.77272727 16.6666667,10.7575758 16.6666667,12.0454545 C16.6666667,13.3333333 17.6515152,14.3181818 18.9393939,14.3181818 C20.2272727,14.3181818 21.2121212,13.3333333 21.2121212,12.0454545 C21.2121212,10.7575758 20.2272727,9.77272727 18.9393939,9.77272727 L18.9393939,9.77272727 Z M18.9393939,12.8030303 C18.4848485,12.8030303 18.1818182,12.5 18.1818182,12.0454545 C18.1818182,11.5909091 18.4848485,11.2878788 18.9393939,11.2878788 C19.3939394,11.2878788 19.6969697,11.5909091 19.6969697,12.0454545 C19.6969697,12.5 19.3181818,12.8030303 18.9393939,12.8030303 L18.9393939,12.8030303 Z" id="Shape"></path>
                <path d="M9.09090909,21.5151515 L15.1515152,21.5151515 C15.6060606,21.5151515 15.9090909,21.2121212 15.9090909,20.7575758 C15.9090909,20.3030303 15.6060606,20 15.1515152,20 L9.09090909,20 C8.63636364,20 8.33333333,20.3030303 8.33333333,20.7575758 C8.33333333,21.2121212 8.63636364,21.5151515 9.09090909,21.5151515 L9.09090909,21.5151515 Z" id="Shape"></path>
            </g>
        </g>
    </g>
</svg>