<?xml version="1.0" encoding="UTF-8" standalone="no"?>
<svg width="24px" height="19px" viewBox="0 0 24 19" version="1.1" xmlns="http://www.w3.org/2000/svg" xmlns:xlink="http://www.w3.org/1999/xlink">
    <!-- Generator: Sketch 39 (31667) - http://www.bohemiancoding.com/sketch -->
    <title>icon_filter</title>
    <desc>Created with Sketch.</desc>
    <defs></defs>
    <g id="Patterns080216" stroke="none" stroke-width="1" fill="none" fill-rule="evenodd">
        <g id="Icons" transform="translate(-669.000000, -199.000000)">
            <g id="icon_filter" transform="translate(669.000000, 200.000000)">
                <path d="M10.5940267,3 L1.00069463,3 C0.44746922,3 0,3.44771525 0,4 C0,4.55613518 0.448026248,5 1.00069463,5 L10.883343,5 C10.6760117,4.54537231 10.56,4.03679865 10.56,3.5 C10.56,3.33023933 10.5716025,3.16330149 10.5940267,3 Z M17.2459733,3 L22.9993054,3 C23.5519738,3 24,3.44386482 24,4 C24,4.55228475 23.5525308,5 22.9993054,5 L16.956657,5 C17.1639883,4.54537231 17.28,4.03679865 17.28,3.5 C17.28,3.33023933 17.2683975,3.16330149 17.2459733,3 Z" id="Combined-Shape" fill="#100F15"></path>
                <path d="M3.97914177,12.5 L1.00069463,12.5 C0.44746922,12.5 0,12.9477153 0,13.5 C0,14.0561352 0.448026248,14.5 1.00069463,14.5 L3.97914177,14.5 C3.88861322,14.1831453 3.84,13.8474863 3.84,13.5 C3.84,13.1525137 3.88861322,12.8168547 3.97914177,12.5 Z M10.4208582,12.5 L22.9993054,12.5 C23.5519738,12.5 24,12.9438648 24,13.5 C24,14.0522847 23.5525308,14.5 22.9993054,14.5 L10.4208582,14.5 C10.5113868,14.1831453 10.56,13.8474863 10.56,13.5 C10.56,13.1525137 10.5113868,12.8168547 10.4208582,12.5 Z" id="Combined-Shape" fill="#100F15"></path>
                <ellipse id="Oval-3-Copy-2" stroke="#100F15" stroke-width="1.92" cx="7.2" cy="13.5" rx="3.36" ry="3.5"></ellipse>
                <ellipse id="Oval-3-Copy-3" stroke="#100F15" stroke-width="1.92" cx="13.92" cy="3.5" rx="3.36" ry="3.5"></ellipse>
            </g>
        </g>
    </g>
</svg>