<?xml version="1.0" encoding="UTF-8" standalone="no"?>
<svg width="61px" height="66px" viewBox="0 0 61 66" version="1.1" xmlns="http://www.w3.org/2000/svg" xmlns:xlink="http://www.w3.org/1999/xlink">
    <!-- Generator: Sketch 39 (31667) - http://www.bohemiancoding.com/sketch -->
    <title>icon_favicon</title>
    <desc>Created with Sketch.</desc>
    <defs>
        <linearGradient x1="50%" y1="0%" x2="90.3496686%" y2="100%" id="linearGradient-1">
            <stop stop-color="#1970AC" offset="0%"></stop>
            <stop stop-color="#00B4BF" offset="100%"></stop>
        </linearGradient>
    </defs>
    <g id="Patterns081716" stroke="none" stroke-width="1" fill="none" fill-rule="evenodd">
        <g id="noun_15809_cc" transform="translate(-20.000000, 0.000000)" fill="url(#linearGradient-1)">
            <path d="M22.225,63.292 C23.787,64.854 25.555,65.619 26.173,65.001 L26.173,65.001 L68.599,22.574 C69.218,21.955 68.453,20.187 66.891,18.625 C65.329,17.063 63.561,16.298 62.943,16.917 L20.516,59.344 L20.516,59.345 C19.897,59.963 20.663,61.73 22.225,63.292 L22.225,63.292 Z M62.942,19.746 C63.254,19.434 64.138,19.816 64.92,20.597 C65.702,21.378 66.082,22.263 65.771,22.575 L55.341,33.005 L52.513,30.177 L62.942,19.746 Z M70.044,11.889 C62.826,10.202 62.051,10.58 58.94,17.307 C60.626,10.09 60.247,9.314 53.521,6.203 C60.737,7.89 61.513,7.512 64.625,0.785 C62.938,8.002 63.316,8.778 70.044,11.889 Z M80.83,15.501 C76.667,19.76 76.603,20.451 79.934,25.389 C75.674,21.226 74.984,21.163 70.044,24.493 C74.208,20.234 74.272,19.544 70.94,14.605 C75.2,18.768 75.892,18.831 80.83,15.501 Z M55.257,18.405 C52.111,15.842 51.638,15.842 48.49,18.405 C51.053,15.258 51.053,14.785 48.49,11.638 C51.637,14.201 52.11,14.201 55.257,11.638 C52.692,14.785 52.692,15.258 55.257,18.405 Z M72.232,28.862 C69.139,29.674 68.92,29.975 69.088,33.17 C68.277,30.076 67.977,29.857 64.783,30.026 C67.876,29.214 68.095,28.913 67.926,25.719 C68.739,28.813 69.039,29.033 72.232,28.862 Z" id="icon_favicon"></path>
        </g>
    </g>
</svg>