<?xml version="1.0" encoding="UTF-8" standalone="no"?>
<svg width="18px" height="18px" viewBox="0 0 18 18" version="1.1" xmlns="http://www.w3.org/2000/svg" xmlns:xlink="http://www.w3.org/1999/xlink">
    <!-- Generator: Sketch 39 (31667) - http://www.bohemiancoding.com/sketch -->
    <title>icon_edit</title>
    <desc>Created with Sketch.</desc>
    <defs></defs>
    <g id="Patterns081716" stroke="none" stroke-width="1" fill="none" fill-rule="evenodd">
        <g id="Icons" transform="translate(-673.000000, -342.000000)" fill="#000000">
            <g id="icon_edit" transform="translate(672.000000, 341.000000)">
                <path d="M16.1,3.9 C16.4846222,4.29852501 16.4846222,4.93004642 16.1,5.32857143 L6.41428571,15.0428571 C6.36727087,15.0911225 6.30801251,15.1256898 6.24285714,15.1428571 L4.65714286,15.5714286 C4.59265495,15.5893027 4.52353763,15.5711004 4.47621863,15.5237814 C4.42889963,15.4764624 4.41069728,15.4073451 4.42857143,15.3428571 L4.85714286,13.7571429 C4.87431016,13.6919875 4.90887753,13.6327291 4.95714286,13.5857143 L14.6571429,3.88571429 C15.0556679,3.5010921 15.6871893,3.5010921 16.0857143,3.88571429 L16.1,3.9 Z M17.6428571,2.32857143 C17.0371588,1.7214008 16.2147714,1.38017185 15.3571429,1.38017185 C14.4995143,1.38017185 13.6771269,1.7214008 13.0714286,2.32857143 L2.97142857,12.4571429 C2.92006438,12.4984549 2.88061937,12.5526918 2.85714286,12.6142857 L1.42857143,18.1428571 C1.40832867,18.2615854 1.4469117,18.3827583 1.53207671,18.4679233 C1.61724172,18.5530883 1.73841464,18.5916713 1.85714286,18.5714286 L7.38571429,17.1428571 C7.45086965,17.1256898 7.51012801,17.0911225 7.55714286,17.0428571 L17.6714286,6.92857143 C18.2785992,6.32287307 18.6198281,5.50048566 18.6198281,4.64285714 C18.6198281,3.78522863 18.2785992,2.96284121 17.6714286,2.35714286 L17.6428571,2.32857143 Z" id="Shape"></path>
            </g>
        </g>
    </g>
</svg>