<?xml version="1.0" encoding="UTF-8" standalone="no"?>
<svg width="22px" height="18px" viewBox="0 0 22 18" version="1.1" xmlns="http://www.w3.org/2000/svg" xmlns:xlink="http://www.w3.org/1999/xlink">
    <!-- Generator: Sketch 39 (31667) - http://www.bohemiancoding.com/sketch -->
    <title>icon_filter</title>
    <desc>Created with Sketch.</desc>
    <defs></defs>
    <g id="Patterns081716" stroke="none" stroke-width="1" fill="none" fill-rule="evenodd">
        <g id="Icons" transform="translate(-670.000000, -200.000000)">
            <g id="icon_filter" transform="translate(670.000000, 201.000000)">
                <path d="M9.7111911,2.82352941 L0.9453125,2.82352941 C0.419834375,2.82352941 0,3.24490847 0,3.76470588 C0,4.28812723 0.423230822,4.70588235 0.9453125,4.70588235 L9.97639771,4.70588235 C9.78634406,4.27799747 9.68,3.7993399 9.68,3.29411765 C9.68,3.1343429 9.69063566,2.97722493 9.7111911,2.82352941 Z M15.8088089,2.82352941 L21.0546875,2.82352941 C21.5767692,2.82352941 22,3.24128454 22,3.76470588 C22,4.28450329 21.5801656,4.70588235 21.0546875,4.70588235 L15.5436023,4.70588235 C15.7336559,4.27799747 15.84,3.7993399 15.84,3.29411765 C15.84,3.1343429 15.8293643,2.97722493 15.8088089,2.82352941 Z" id="Combined-Shape" fill="#100F15"></path>
                <path d="M3.64754662,11.7647059 L0.9453125,11.7647059 C0.419834375,11.7647059 0,12.1860849 0,12.7058824 C0,13.2293037 0.423230822,13.6470588 0.9453125,13.6470588 L3.64754662,13.6470588 C3.56456212,13.3488426 3.52,13.0329283 3.52,12.7058824 C3.52,12.3788364 3.56456212,12.0629221 3.64754662,11.7647059 Z M9.55245338,11.7647059 L21.0546875,11.7647059 C21.5767692,11.7647059 22,12.182461 22,12.7058824 C22,13.2256798 21.5801656,13.6470588 21.0546875,13.6470588 L9.55245338,13.6470588 C9.63543788,13.3488426 9.68,13.0329283 9.68,12.7058824 C9.68,12.3788364 9.63543788,12.0629221 9.55245338,11.7647059 Z" id="Combined-Shape" fill="#100F15"></path>
                <ellipse id="Oval-3-Copy-2" stroke="#100F15" stroke-width="1.76" cx="6.6" cy="12.7058824" rx="3.08" ry="3.29411765"></ellipse>
                <ellipse id="Oval-3-Copy-3" stroke="#100F15" stroke-width="1.76" cx="12.76" cy="3.29411765" rx="3.08" ry="3.29411765"></ellipse>
            </g>
        </g>
    </g>
</svg>