<?xml version="1.0" encoding="UTF-8" standalone="no"?>
<svg width="20px" height="20px" viewBox="0 0 20 20" version="1.1" xmlns="http://www.w3.org/2000/svg" xmlns:xlink="http://www.w3.org/1999/xlink">
    <!-- Generator: Sketch 39 (31667) - http://www.bohemiancoding.com/sketch -->
    <title>icon_warning</title>
    <desc>Created with Sketch.</desc>
    <defs></defs>
    <g id="Patterns081716" stroke="none" stroke-width="1" fill="none" fill-rule="evenodd">
        <g id="Icons" transform="translate(-442.000000, -199.000000)">
            <g id="icon_warning" transform="translate(439.000000, 196.000000)">
                <path d="M12.6568316,3.37837838 L18.5886063,5.83539988 C18.936039,5.97931122 19.3344605,6.37788625 19.4782634,6.72505699 L21.6747103,12.0277491 C21.8186217,12.3751818 21.8185132,12.9387435 21.6747103,13.2859142 L19.4782634,18.5886063 C19.334352,18.936039 18.935777,19.3344605 18.5886063,19.4782634 L12.6568316,21.9352849 L6.72505699,19.4782634 C6.37762428,19.334352 5.97920271,18.935777 5.83539988,18.5886063 L3.63895291,13.2859142 C3.49504157,12.9384815 3.49515008,12.3749198 3.63895291,12.0277491 L5.83539988,6.72505699 C5.97931122,6.37762428 6.37788625,5.97920271 6.72505699,5.83539988 L12.6568316,3.37837838 Z" id="Polygon" stroke="#2A2A2A" stroke-width="1.8225" stroke-linecap="round" transform="translate(12.656832, 12.656832) rotate(68.000000) translate(-12.656832, -12.656832) "></path>
                <path d="M12.3218534,14.3653921 C12.3501308,14.6706255 12.5480722,14.8648649 12.8308455,14.8648649 C13.1136189,14.8648649 13.325699,14.6706255 13.3539763,14.3653921 L13.8488298,8.70470059 C13.8771071,8.37171874 13.6650271,8.10810811 13.3398377,8.10810811 L12.3218534,8.10810811 C11.996664,8.10810811 11.7987227,8.37171874 11.827,8.70470059 L12.3218534,14.3653921 Z M11.8243243,16.4855734 L11.8243243,16.6225347 C11.8243243,17.1566837 12.2668443,17.5675676 12.8378378,17.5675676 C13.4231062,17.5675676 13.8513514,17.1566837 13.8513514,16.6225347 L13.8513514,16.4855734 C13.8513514,15.9514244 13.4231062,15.5405405 12.8378378,15.5405405 C12.2668443,15.5405405 11.8243243,15.9514244 11.8243243,16.4855734 L11.8243243,16.4855734 Z" id="!" fill="#000000"></path>
            </g>
        </g>
    </g>
</svg>