<?xml version="1.0" encoding="UTF-8" standalone="no"?>
<svg width="372px" height="30px" viewBox="0 0 372 30" version="1.1" xmlns="http://www.w3.org/2000/svg" xmlns:xlink="http://www.w3.org/1999/xlink">
    <!-- Generator: Sketch 39 (31667) - http://www.bohemiancoding.com/sketch -->
    <title>logo_large</title>
    <desc>Created with Sketch.</desc>
    <defs>
        <linearGradient x1="53.1709039%" y1="24.6429655%" x2="93.4335954%" y2="129.911256%" id="linearGradient-1">
            <stop stop-color="#00B6BD" offset="0%"></stop>
            <stop stop-color="#1775B0" offset="100%"></stop>
        </linearGradient>
    </defs>
    <g id="Patterns080216" stroke="none" stroke-width="1" fill="none" fill-rule="evenodd">
        <g id="logo_large">
            <path d="M11.6,29.4 C17.16,29.4 21.16,26.28 21.16,21.48 L21.16,21.4 C21.16,17.12 18.28,14.84 12.04,13.48 C5.88,12.16 4.44,10.68 4.44,8.04 L4.44,7.96 C4.44,5.44 6.76,3.44 10.4,3.44 C13,3.44 15.28,4.16 17.64,5.88 C17.92,6.08 18.2,6.16 18.56,6.16 C19.4,6.16 20.08,5.48 20.08,4.64 C20.08,4.04 19.72,3.6 19.4,3.36 C16.84,1.52 14.16,0.6 10.48,0.6 C5.16,0.6 1.28,3.84 1.28,8.24 L1.28,8.32 C1.28,12.92 4.24,15 10.68,16.4 C16.56,17.64 17.96,19.12 17.96,21.72 L17.96,21.8 C17.96,24.56 15.48,26.56 11.72,26.56 C8.16,26.56 5.52,25.48 2.88,23.24 C2.68,23.04 2.32,22.88 1.92,22.88 C1.08,22.88 0.4,23.56 0.4,24.44 C0.4,24.96 0.64,25.4 1,25.64 C4.12,28.12 7.52,29.4 11.6,29.4 L11.6,29.4 Z" id="Path" fill="#000000"></path>
            <path d="M38.8,29.44 C45.8,29.44 50.48,25.2 50.48,17.04 L50.48,2.4 C50.48,1.52 49.76,0.8 48.92,0.8 C48.04,0.8 47.32,1.52 47.32,2.4 L47.32,17.28 C47.32,23.4 44.04,26.52 38.88,26.52 C33.56,26.52 30.32,23.12 30.32,17.08 L30.32,2.4 C30.32,1.52 29.6,0.8 28.72,0.8 C27.88,0.8 27.16,1.52 27.16,2.4 L27.16,17.28 C27.16,25.2 31.88,29.44 38.8,29.44 L38.8,29.44 Z" id="Path" fill="#000000"></path>
            <path d="M57.96,27.6 C57.96,28.48 58.68,29.2 59.52,29.2 C60.4,29.2 61.12,28.48 61.12,27.6 L61.12,19.12 L67.92,19.12 C73.88,19.12 78.92,16 78.92,9.96 L78.92,9.88 C78.92,4.36 74.76,1 68.44,1 L59.52,1 C58.68,1 57.96,1.72 57.96,2.6 L57.96,27.6 Z M61.12,16.24 L61.12,3.92 L68.2,3.92 C72.72,3.92 75.72,6 75.72,10 L75.72,10.08 C75.72,13.76 72.68,16.24 68.04,16.24 L61.12,16.24 Z" id="Combined-Shape" fill="#000000"></path>
            <path d="M84.68,27.6 C84.68,28.48 85.4,29.2 86.24,29.2 C87.12,29.2 87.84,28.48 87.84,27.6 L87.84,19.12 L94.64,19.12 C100.6,19.12 105.64,16 105.64,9.96 L105.64,9.88 C105.64,4.36 101.48,1 95.16,1 L86.24,1 C85.4,1 84.68,1.72 84.68,2.6 L84.68,27.6 Z M87.84,16.24 L87.84,3.92 L94.92,3.92 C99.44,3.92 102.44,6 102.44,10 L102.44,10.08 C102.44,13.76 99.4,16.24 94.76,16.24 L87.84,16.24 Z" id="Combined-Shape" fill="#000000"></path>
            <path d="M111.4,27.4 C111.4,28.28 112.12,29 112.96,29 L129.08,29 C129.88,29 130.52,28.36 130.52,27.56 C130.52,26.76 129.88,26.08 129.08,26.08 L114.56,26.08 L114.56,2.4 C114.56,1.52 113.84,0.8 112.96,0.8 C112.12,0.8 111.4,1.52 111.4,2.4 L111.4,27.4 Z" id="Path" fill="#000000"></path>
            <path d="M144.76,27.6 C144.76,28.48 145.48,29.2 146.36,29.2 C147.24,29.2 147.96,28.48 147.96,27.6 L147.96,17.92 L158.32,3.52 C158.52,3.2 158.76,2.76 158.76,2.36 C158.76,1.52 158.08,0.8 157.2,0.8 C156.52,0.8 156.12,1.2 155.72,1.76 L146.4,15.08 L137.16,1.76 C136.76,1.2 136.32,0.8 135.64,0.8 C134.76,0.8 134,1.52 134,2.36 C134,2.76 134.16,3.12 134.36,3.44 L144.76,18 L144.76,27.6 Z" id="Path" fill="#000000"></path>
            <path d="M182.68,27.36 C183.16,28.64 184.04,29.4 185.24,29.4 L185.72,29.4 C186.92,29.4 187.84,28.64 188.28,27.36 L194.52,9.08 L200.76,27.36 C201.2,28.64 202.08,29.4 203.28,29.4 L203.76,29.4 C204.96,29.4 205.88,28.6 206.32,27.36 L214.6,4.16 C214.72,3.88 214.84,3.48 214.84,3.16 C214.84,1.84 213.72,0.8 212.4,0.8 C211.2,0.8 210.36,1.56 210,2.56 L203.56,21.84 L197.24,2.68 C196.88,1.52 196,0.72 194.76,0.72 L194.4,0.72 C193.16,0.72 192.32,1.52 191.92,2.68 L185.6,21.84 L179.16,2.6 C178.84,1.56 177.92,0.8 176.72,0.8 C175.36,0.8 174.2,1.84 174.2,3.2 C174.2,3.52 174.28,3.88 174.4,4.16 L182.68,27.36 Z M220.36,26.76 C220.36,28.12 221.44,29.2 222.84,29.2 C224.2,29.2 225.28,28.12 225.28,26.76 L225.28,3.24 C225.28,1.88 224.2,0.8 222.84,0.8 C221.44,0.8 220.36,1.88 220.36,3.24 L220.36,26.76 Z M233.8,29 L252.72,29 C253.92,29 254.92,28.04 254.92,26.84 C254.92,25.64 253.92,24.64 252.72,24.64 L238.16,24.64 L253.96,5.56 C254.52,4.84 254.84,4.12 254.84,3.28 L254.84,3.16 C254.84,2 253.84,1 252.64,1 L234.24,1 C233.08,1 232.08,2 232.08,3.2 C232.08,4.4 233.08,5.36 234.24,5.36 L248.28,5.36 L232.52,24.44 C231.92,25.12 231.6,25.88 231.6,26.72 L231.6,26.84 C231.6,28 232.64,29 233.8,29 Z M258.92,26.92 C258.92,28.2 259.92,29.2 261.2,29.2 C262.24,29.2 263.08,28.64 263.48,27.64 L265.84,22.24 L279.44,22.24 L281.72,27.48 C282.16,28.52 282.96,29.2 284.12,29.2 C285.44,29.2 286.44,28.16 286.44,26.84 C286.44,26.52 286.36,26.16 286.16,25.8 L275.76,2.6 C275.2,1.36 274.24,0.6 272.84,0.6 L272.6,0.6 C271.2,0.6 270.2,1.36 269.64,2.6 L259.24,25.8 C259.04,26.2 258.92,26.56 258.92,26.92 Z M267.72,17.88 L272.64,6.56 L277.56,17.88 L267.72,17.88 Z M291.76,26.76 C291.76,28.12 292.84,29.2 294.24,29.2 C295.6,29.2 296.68,28.12 296.68,26.76 L296.68,19.24 L302.88,19.24 L309.68,27.92 C310.24,28.68 310.96,29.2 312.08,29.2 C313.28,29.2 314.44,28.28 314.44,26.92 C314.44,26.16 314.12,25.64 313.64,25.04 L308.28,18.28 C312.04,17.12 314.64,14.4 314.64,9.92 L314.64,9.84 C314.64,7.4 313.8,5.32 312.32,3.8 C310.52,2.04 307.76,1 304.24,1 L294.24,1 C292.84,1 291.76,2.08 291.76,3.48 L291.76,26.76 Z M296.68,14.88 L296.68,5.48 L303.84,5.48 C307.48,5.48 309.64,7.12 309.64,10.12 L309.64,10.2 C309.64,13.04 307.4,14.88 303.88,14.88 L296.68,14.88 Z M320.68,26.52 C320.68,27.92 321.76,29 323.16,29 L331.12,29 C339.92,29 346,22.88 346,15 L346,14.92 C346,7.04 339.92,1 331.12,1 L323.16,1 C321.76,1 320.68,2.08 320.68,3.48 L320.68,26.52 Z M325.6,24.52 L325.6,5.48 L331.12,5.48 C337,5.48 340.84,9.52 340.84,15 L340.84,15.08 C340.84,20.56 337,24.52 331.12,24.52 L325.6,24.52 Z M361.76,29.4 C367.64,29.4 371.76,26.28 371.76,21.04 L371.76,20.96 C371.76,16.32 368.72,14.2 362.8,12.76 C357.4,11.48 356.12,10.52 356.12,8.36 L356.12,8.28 C356.12,6.44 357.8,4.96 360.68,4.96 C362.88,4.96 364.96,5.68 367.12,7.08 C367.52,7.32 367.92,7.44 368.4,7.44 C369.68,7.44 370.72,6.44 370.72,5.16 C370.72,4.2 370.2,3.52 369.64,3.2 C367.12,1.52 364.28,0.6 360.76,0.6 C355.2,0.6 351.2,3.92 351.2,8.72 L351.2,8.8 C351.2,13.96 354.56,15.72 360.52,17.16 C365.72,18.36 366.84,19.44 366.84,21.44 L366.84,21.52 C366.84,23.6 364.92,25.04 361.88,25.04 C358.84,25.04 356.36,24 354.04,22.16 C353.72,21.92 353.28,21.72 352.6,21.72 C351.32,21.72 350.28,22.72 350.28,24 C350.28,24.8 350.68,25.48 351.24,25.88 C354.36,28.2 357.96,29.4 361.76,29.4 Z" id="SUPPLY-WIZARDS" fill="url(#linearGradient-1)"></path>
        </g>
    </g>
</svg>