<?xml version="1.0" encoding="UTF-8" standalone="no"?>
<svg width="66px" height="29px" viewBox="0 0 66 29" version="1.1" xmlns="http://www.w3.org/2000/svg" xmlns:xlink="http://www.w3.org/1999/xlink">
    <!-- Generator: Sketch 39 (31667) - http://www.bohemiancoding.com/sketch -->
    <title>logo_small</title>
    <desc>Created with Sketch.</desc>
    <defs>
        <linearGradient x1="50%" y1="0%" x2="90.3496686%" y2="100%" id="linearGradient-1">
            <stop stop-color="#1970AC" offset="0%"></stop>
            <stop stop-color="#00B4BF" offset="100%"></stop>
        </linearGradient>
    </defs>
    <g id="Patterns081716" stroke="none" stroke-width="1" fill="none" fill-rule="evenodd">
        <path d="M11.48,28.8 C17.36,28.8 21.48,25.68 21.48,20.44 L21.48,20.36 C21.48,15.72 18.44,13.6 12.52,12.16 C7.12,10.88 5.84,9.92 5.84,7.76 L5.84,7.68 C5.84,5.84 7.52,4.36 10.4,4.36 C12.6,4.36 14.68,5.08 16.84,6.48 C17.24,6.72 17.64,6.84 18.12,6.84 C19.4,6.84 20.44,5.84 20.44,4.56 C20.44,3.6 19.92,2.92 19.36,2.6 C16.84,0.92 14,-3.55271368e-15 10.48,-3.55271368e-15 C4.92,-3.55271368e-15 0.92,3.32 0.92,8.12 L0.92,8.2 C0.92,13.36 4.28,15.12 10.24,16.56 C15.44,17.76 16.56,18.84 16.56,20.84 L16.56,20.92 C16.56,23 14.64,24.44 11.6,24.44 C8.56,24.44 6.08,23.4 3.76,21.56 C3.44,21.32 3,21.12 2.32,21.12 C1.04,21.12 0,22.12 0,23.4 C0,24.2 0.4,24.88 0.96,25.28 C4.08,27.6 7.68,28.8 11.48,28.8 L11.48,28.8 Z M33.84,26.76 C34.32,28.04 35.2,28.8 36.4,28.8 L36.88,28.8 C38.08,28.8 39,28.04 39.44,26.76 L45.68,8.48 L51.92,26.76 C52.36,28.04 53.24,28.8 54.44,28.8 L54.92,28.8 C56.12,28.8 57.04,28 57.48,26.76 L65.76,3.56 C65.88,3.28 66,2.88 66,2.56 C66,1.24 64.88,0.2 63.56,0.2 C62.36,0.2 61.52,0.96 61.16,1.96 L54.72,21.24 L48.4,2.08 C48.04,0.92 47.16,0.12 45.92,0.12 L45.56,0.12 C44.32,0.12 43.48,0.92 43.08,2.08 L36.76,21.24 L30.32,2 C30,0.96 29.08,0.2 27.88,0.2 C26.52,0.2 25.36,1.24 25.36,2.6 C25.36,2.92 25.44,3.28 25.56,3.56 L33.84,26.76 Z" id="logo_small" fill="url(#linearGradient-1)"></path>
    </g>
</svg>