<?xml version="1.0" encoding="UTF-8" standalone="no"?>
<svg width="78px" height="78px" viewBox="0 0 78 78" version="1.1" xmlns="http://www.w3.org/2000/svg" xmlns:xlink="http://www.w3.org/1999/xlink">
    <!-- Generator: Sketch 39 (31667) - http://www.bohemiancoding.com/sketch -->
    <title>logo_small_square</title>
    <desc>Created with Sketch.</desc>
    <defs>
        <linearGradient x1="50%" y1="0%" x2="90.3496686%" y2="100%" id="linearGradient-1">
            <stop stop-color="#1970AC" offset="0%"></stop>
            <stop stop-color="#00B4BF" offset="100%"></stop>
        </linearGradient>
    </defs>
    <g id="Patterns081716" stroke="none" stroke-width="1" fill="none" fill-rule="evenodd">
        <g id="logo_small_square" fill="url(#linearGradient-1)">
            <path d="M17.48,53.8 C23.36,53.8 27.48,50.68 27.48,45.44 L27.48,45.36 C27.48,40.72 24.44,38.6 18.52,37.16 C13.12,35.88 11.84,34.92 11.84,32.76 L11.84,32.68 C11.84,30.84 13.52,29.36 16.4,29.36 C18.6,29.36 20.68,30.08 22.84,31.48 C23.24,31.72 23.64,31.84 24.12,31.84 C25.4,31.84 26.44,30.84 26.44,29.56 C26.44,28.6 25.92,27.92 25.36,27.6 C22.84,25.92 20,25 16.48,25 C10.92,25 6.92,28.32 6.92,33.12 L6.92,33.2 C6.92,38.36 10.28,40.12 16.24,41.56 C21.44,42.76 22.56,43.84 22.56,45.84 L22.56,45.92 C22.56,48 20.64,49.44 17.6,49.44 C14.56,49.44 12.08,48.4 9.76,46.56 C9.44,46.32 9,46.12 8.32,46.12 C7.04,46.12 6,47.12 6,48.4 C6,49.2 6.4,49.88 6.96,50.28 C10.08,52.6 13.68,53.8 17.48,53.8 L17.48,53.8 Z M39.84,51.76 C40.32,53.04 41.2,53.8 42.4,53.8 L42.88,53.8 C44.08,53.8 45,53.04 45.44,51.76 L51.68,33.48 L57.92,51.76 C58.36,53.04 59.24,53.8 60.44,53.8 L60.92,53.8 C62.12,53.8 63.04,53 63.48,51.76 L71.76,28.56 C71.88,28.28 72,27.88 72,27.56 C72,26.24 70.88,25.2 69.56,25.2 C68.36,25.2 67.52,25.96 67.16,26.96 L60.72,46.24 L54.4,27.08 C54.04,25.92 53.16,25.12 51.92,25.12 L51.56,25.12 C50.32,25.12 49.48,25.92 49.08,27.08 L42.76,46.24 L36.32,27 C36,25.96 35.08,25.2 33.88,25.2 C32.52,25.2 31.36,26.24 31.36,27.6 C31.36,27.92 31.44,28.28 31.56,28.56 L39.84,51.76 Z" id="logo_small"></path>
        </g>
    </g>
</svg>